<?xml version="1.0" standalone="no"?><!DOCTYPE svg PUBLIC "-//W3C//DTD SVG 1.1//EN" "http://www.w3.org/Graphics/SVG/1.1/DTD/svg11.dtd"><svg t="1603248035244" class="icon" viewBox="0 0 1024 1024" version="1.1" xmlns="http://www.w3.org/2000/svg" p-id="7101" xmlns:xlink="http://www.w3.org/1999/xlink" width="200" height="200"><defs><style type="text/css"></style></defs><path d="M292 572c-33.2 0-60-26.8-60-60s26.8-60 60-60 60 26.8 60 60-26.8 60-60 60z m220 0c-33.2 0-60-26.8-60-60s26.8-60 60-60 60 26.8 60 60-26.8 60-60 60z m220 0c-33.2 0-60-26.8-60-60s26.8-60 60-60 60 26.8 60 60-26.8 60-60 60z" p-id="7102"></path></svg>